<?xml version="1.0" encoding="UTF-8"?>
<svg version="1.1" xmlns="http://www.w3.org/2000/svg" width="3780" height="1890">
<path d="M0 0 C1247.4 0 2494.8 0 3780 0 C3780 623.7 3780 1247.4 3780 1890 C2532.6 1890 1285.2 1890 0 1890 C0 1266.3 0 642.6 0 0 Z " fill="#FEFEFE" transform="translate(0,0)"/>
<path d="M0 0 C18.81 0 37.62 0 57 0 C57.00586624 8.9535965 57.01173248 17.90719299 57.01777649 27.1321106 C57.02185905 33.20770266 57.02595531 39.28329472 57.03013611 45.35888672 C57.03067915 46.14817754 57.03122219 46.93746837 57.03178169 47.75067709 C57.06782088 100.05293749 57.10741674 152.35519253 57.15898132 204.65744019 C57.16047467 206.17374416 57.16047467 206.17374416 57.16199819 207.72068054 C57.1836605 229.69354596 57.20598347 251.66641067 57.22898628 273.63927472 C57.24026406 284.41592912 57.25139597 295.19258366 57.26245117 305.96923828 C57.26410502 307.57778423 57.26410502 307.57778423 57.26579228 309.21882606 C57.30141319 343.93043188 57.32741541 378.64203673 57.34838969 413.35365423 C57.37000804 449.04663076 57.40140997 484.73958579 57.44499113 520.43254258 C57.4511527 525.4825742 57.45720329 530.53260595 57.46318626 535.58263779 C57.46436715 536.57648344 57.46554803 537.5703291 57.46676469 538.59429129 C57.48543174 554.54430328 57.49389118 570.49430487 57.49846124 586.44432644 C57.50328451 602.50864057 57.51903333 618.57291535 57.54566566 634.63720836 C57.56113233 644.16237975 57.56849115 653.68747335 57.56376929 663.21265658 C57.56143367 669.60017689 57.57015365 675.98762449 57.58732411 682.37512189 C57.59676447 685.99880965 57.60191395 689.62233674 57.59339563 693.24603058 C57.48002429 746.54517787 66.71125686 797.75138035 90 846 C90.33741211 846.70511719 90.67482422 847.41023438 91.02246094 848.13671875 C98.01533216 862.6818909 105.74771656 876.76025858 115 890 C115.38800781 890.55929199 115.77601563 891.11858398 116.17578125 891.69482422 C123.75680332 902.6000643 131.92235793 912.83321217 140.875 922.65625 C142.82494724 924.80692711 144.73026129 926.98824971 146.625 929.1875 C152.27892413 935.66026832 158.43059976 941.46787348 165 947 C165.53206055 947.45117188 166.06412109 947.90234375 166.61230469 948.3671875 C187.66559563 966.13989456 211.0018691 981.36645029 236 993 C236.94939453 993.44569336 236.94939453 993.44569336 237.91796875 993.90039062 C242.56120877 996.06189891 247.25354306 998.07626319 252 1000 C252.70447266 1000.2872998 253.40894531 1000.57459961 254.13476562 1000.87060547 C314.39698898 1024.92451608 385.05032859 1022.65329371 444.42578125 997.76953125 C467.37549772 987.82502137 489.35544553 975.53358642 509 960 C509.81082031 959.36964844 510.62164063 958.73929688 511.45703125 958.08984375 C513.99804652 956.0906928 516.50305704 954.05393695 519 952 C519.74491699 951.39260986 519.74491699 951.39260986 520.50488281 950.77294922 C534.08700205 939.64557997 547.22570099 927.40141125 558.02734375 913.51953125 C559.36568154 911.81016912 560.75657546 910.14092947 562.19140625 908.51171875 C588.2525124 878.84413333 605.4934075 841.71140133 619 805 C619.35280029 804.06647705 619.70560059 803.1329541 620.0690918 802.17114258 C647.30619412 729.33491886 641.27928378 638.25740635 609.3125 567.9375 C607.91202669 564.93935585 606.46672494 561.96619536 605 559 C604.31499598 557.58859417 603.63009873 556.17713651 602.9453125 554.765625 C601.32365001 551.45240754 599.66123853 548.16235225 597.97070312 544.88378906 C597.32732421 543.63521972 596.68794684 542.3845797 596.05273438 541.13183594 C585.76615006 520.86747781 572.80372364 500.84377346 557.16015625 484.30078125 C555.34375391 482.3661321 553.61464924 480.39535225 551.88671875 478.3828125 C547.39141563 473.22743955 542.58320199 468.39918915 537.75 463.5625 C536.87214844 462.67240234 535.99429688 461.78230469 535.08984375 460.86523438 C529.04314021 454.8052511 522.71892175 449.30058644 516 444 C515.39188477 443.51233154 514.78376953 443.02466309 514.15722656 442.5222168 C496.53443029 428.43787788 477.23423125 416.67333978 456.91015625 406.92041016 C455.07898093 406.03805702 453.25796497 405.13471286 451.4375 404.23046875 C432.43836868 395.00172404 412.72690371 388.96221276 392 385 C391.07155273 384.82065918 390.14310547 384.64131836 389.18652344 384.45654297 C359.87102229 379.10664995 326.27458882 379.99277469 297 385.1875 C295.74670898 385.40962158 294.49341797 385.63174316 293.20214844 385.8605957 C241.45883779 395.31180397 197.39837422 420.73816833 158 455 C157.28714844 455.61230469 156.57429688 456.22460938 155.83984375 456.85546875 C146.81122856 464.66049338 138.08513944 472.75556639 129.74511719 481.29174805 C128.51384843 482.54486995 127.25922892 483.77497764 126 485 C125.67 485 125.34 485 125 485 C124.69734746 476.32464669 124.46710888 467.65113701 124.32644176 458.97163677 C124.25888576 454.94003708 124.16747073 450.9120742 124.01928711 446.88256836 C123.87688373 442.9853652 123.80008625 439.09163177 123.76659584 435.19202614 C123.74277031 433.71291269 123.69623389 432.23396709 123.62550926 430.75635338 C123.11033201 419.53552687 123.11033201 419.53552687 126.26066017 415.30846596 C129.7832753 411.65167156 133.81112893 408.84040852 138 406 C139.60934358 404.74725937 141.21197814 403.48572219 142.80078125 402.20703125 C144.2999903 401.06930454 145.80398882 399.93786388 147.3125 398.8125 C148.14515381 398.19084961 148.97780762 397.56919922 149.83569336 396.92871094 C171.00127126 381.29790532 193.20590273 367.26393406 217 356 C217.74797852 355.64196289 218.49595703 355.28392578 219.26660156 354.91503906 C245.08564426 342.62888296 271.82218386 334.81489048 300 330.1875 C301.25103516 329.98036377 302.50207031 329.77322754 303.79101562 329.55981445 C319.14319788 327.16179388 334.43571252 326.79199725 349.9375 326.8125 C350.78861359 326.81310425 351.63972717 326.8137085 352.51663208 326.81433105 C423.98618922 326.95134995 494.52165622 348.99356882 552 392 C552.61810547 392.46116211 553.23621094 392.92232422 553.87304688 393.39746094 C561.68770997 399.27305342 568.98025771 405.57420293 576.09375 412.27734375 C578.48016768 414.51300655 580.89593536 416.6814579 583.375 418.8125 C589.08384204 423.76734404 594.21705162 429.13754237 599.140625 434.8671875 C600.39837046 436.30989552 601.6806258 437.73153876 602.984375 439.1328125 C640.55814329 479.58632216 668.81638795 533.84232507 682.48681641 587.0625 C683.24883915 589.93948027 684.13420146 592.77778898 685 595.625 C689.38533351 611.09744686 692.16315309 626.88308225 694.25 642.8125 C694.49459961 644.65026001 694.49459961 644.65026001 694.74414062 646.52514648 C696.9385925 664.12861921 697.16406357 681.73291063 697.13037109 699.45385742 C697.12497937 702.8254032 697.13036887 706.19681744 697.13671875 709.56835938 C697.14296024 724.99122609 696.48309534 739.96773596 694.25 755.25 C694.0751709 756.45019775 693.9003418 757.65039551 693.72021484 758.88696289 C690.89460041 777.81907578 687.35622717 796.38790724 681.70996094 814.69238281 C681.05250047 816.82935541 680.41721012 818.97145195 679.7890625 821.1171875 C672.69491765 845.01670575 662.51891752 867.9276382 651 890 C650.61150879 890.7518457 650.22301758 891.50369141 649.82275391 892.27832031 C640.06058948 911.04964475 628.24555146 928.51204793 615 945 C614.278125 945.91394531 613.55625 946.82789063 612.8125 947.76953125 C599.79381974 964.01963394 584.99404177 980.13954793 568.5703125 992.984375 C565.82436275 995.13773377 563.20351529 997.40695755 560.5625 999.6875 C545.84641301 1011.91929911 529.76395808 1021.85543536 513 1031 C511.81954102 1031.65693848 511.81954102 1031.65693848 510.61523438 1032.32714844 C491.71559431 1042.84375523 471.8200337 1050.82014739 451.20654297 1057.30224609 C449.28937584 1057.90849345 447.38020942 1058.53993019 445.47265625 1059.17578125 C392.54141667 1076.46353794 329.11343796 1076.9426473 275 1065 C273.76805908 1064.74162354 273.76805908 1064.74162354 272.51123047 1064.47802734 C221.59373208 1053.77260107 172.98338986 1029.17640171 133 996 C131.49179688 994.75283203 131.49179688 994.75283203 129.953125 993.48046875 C115.08190027 981.09077849 100.30966245 968.02233878 88.26171875 952.81640625 C86.27403338 950.34124018 84.214925 947.95158318 82.11889648 945.56835938 C74.59294371 936.94579461 68.30500718 927.53338705 62 918 C61.57444824 917.36416992 61.14889648 916.72833984 60.71044922 916.07324219 C37.74582649 881.74478015 22.72128505 843.68942625 12 804 C11.60772217 802.58074219 11.60772217 802.58074219 11.20751953 801.1328125 C6.53660606 784.06987807 4.33572673 766.50523118 2 749 C1.83627504 747.8227728 1.67255008 746.6455456 1.50386375 745.43264484 C0.88426947 740.42638865 0.64797934 735.41979417 0.44501591 730.38163757 C0.40287232 729.34019331 0.36072874 728.29874904 0.31730807 727.22574586 C-0.15070012 714.49094803 -0.13832049 701.75581612 -0.12226619 689.01419985 C-0.11877015 685.32920369 -0.1212143 681.64421007 -0.12284368 677.95921326 C-0.12489919 671.5264381 -0.12330523 665.09367227 -0.11920547 658.66089821 C-0.11312657 649.09586106 -0.11287371 639.53082968 -0.11374746 629.96579095 C-0.11505614 613.86952617 -0.1117399 597.77326553 -0.10573006 581.67700195 C-0.09980028 565.75415018 -0.09596154 549.83130013 -0.09487724 533.90844727 C-0.0948085 532.91608638 -0.09473976 531.92372549 -0.09466894 530.90129305 C-0.09433058 525.86099586 -0.09402921 520.82069867 -0.09374207 515.78040147 C-0.09164516 480.13826778 -0.08491762 444.49613633 -0.07543945 408.85400391 C-0.06624581 374.24169934 -0.05916672 339.62939539 -0.05493164 305.01708984 C-0.05480011 303.94900838 -0.05466859 302.88092692 -0.05453308 301.78047936 C-0.05321449 291.05375249 -0.05193868 280.32702562 -0.05069422 269.60029874 C-0.04815843 247.75135473 -0.04533718 225.90241075 -0.04234314 204.0534668 C-0.04220585 203.0490262 -0.04206856 202.0445856 -0.04192711 201.00970741 C-0.03480452 149.08485532 -0.02344447 97.16000427 -0.0111084 45.2351532 C-0.01093499 44.50513982 -0.01076159 43.77512645 -0.01058293 43.02299146 C-0.00716878 28.68199428 -0.00356642 14.34099714 0 0 Z " fill="#545454" transform="translate(2198,293)"/>
<path d="M0 0 C19.14 0 38.28 0 58 0 C58 64.68 58 129.36 58 196 C141.49 196 224.98 196 311 196 C311 214.15 311 232.3 311 251 C227.18 251 143.36 251 57 251 C57.14875844 334.5000092 57.14875844 334.5000092 57.30664062 418 C57.32721089 428.54381636 57.34773606 439.0876328 57.36815169 449.63144946 C57.37092083 451.06153194 57.37369139 452.49161442 57.37646339 453.9216969 C57.42060358 476.69980724 57.46161564 499.47792187 57.50098413 522.25604092 C57.54262849 546.34104466 57.58787009 570.42603933 57.63687855 594.51102924 C57.66610727 608.93214398 57.69247964 623.3532581 57.71517897 637.77438462 C57.73102736 647.66830398 57.75045355 657.56221232 57.77266841 667.45611942 C57.78537331 673.16125163 57.79652451 678.8663755 57.80341911 684.57151794 C57.80977613 689.802899 57.82066346 695.03425106 57.8350333 700.26561606 C57.83943169 702.15013809 57.84222023 704.03466479 57.84316199 705.91919172 C57.85210202 720.94620699 58.09471347 735.86082843 60.8125 750.6875 C61.07969849 752.16573242 61.07969849 752.16573242 61.35229492 753.67382812 C65.41080635 775.38122995 74.75069111 795.07133388 89 812 C89.66515625 812.79921875 90.3303125 813.5984375 91.015625 814.421875 C111.53007624 838.1832178 139.45539058 851.17495036 170.11328125 855.421875 C174 856 174 856 177 857 C178.8138646 857.10216615 180.63122112 857.14632231 182.44792175 857.15821838 C183.57954239 857.1680072 184.71116302 857.17779602 185.8770752 857.18788147 C187.11928833 857.19363693 188.36150146 857.1993924 189.64135742 857.20532227 C191.60248222 857.22017166 191.60248222 857.22017166 193.60322571 857.23532104 C197.18969096 857.26236653 200.77616937 857.28337801 204.3626802 857.30332303 C208.11032622 857.32518478 211.85793172 857.35257255 215.60554504 857.37937927 C222.70278281 857.4293036 229.80004308 857.4742434 236.89732486 857.51740164 C244.97707395 857.56677623 253.05678237 857.62169354 261.13649213 857.67708123 C277.75762529 857.7908973 294.37879573 857.89700543 311 858 C311 875.82 311 893.64 311 912 C294.81342942 912.02264295 278.62687252 912.04103488 262.44029045 912.05181217 C254.92324122 912.05695103 247.40620258 912.06394737 239.88916016 912.07543945 C233.33123712 912.08546038 226.77332176 912.09187092 220.21539128 912.09408849 C216.74855353 912.09538311 213.28173773 912.09838876 209.81490707 912.10573006 C205.92852135 912.11389173 202.04215639 912.11398641 198.15576172 912.11352539 C197.02790253 912.11712067 195.90004333 912.12071594 194.73800659 912.12442017 C181.79880635 912.10794195 169.18273608 910.95505408 156.4375 908.8125 C155.79069275 908.70428925 155.1438855 908.59607849 154.47747803 908.48458862 C142.70464514 906.49416044 131.32936382 903.76580979 120 900 C118.9471582 899.658479 118.9471582 899.658479 117.87304688 899.31005859 C101.33381185 893.86411659 85.87588164 885.48649625 72 875 C71.11699219 874.34 70.23398438 873.68 69.32421875 873 C43.07869712 852.47016975 24.49908305 825.13102244 13 794 C12.72462402 793.25637207 12.44924805 792.51274414 12.16552734 791.74658203 C8.66621207 782.05860432 6.2503178 772.22351082 4.25 762.125 C3.95186401 760.63987915 3.95186401 760.63987915 3.64770508 759.12475586 C-0.00716811 739.52504799 -0.29366034 719.87389176 -0.24453239 699.99666715 C-0.23756343 696.25578326 -0.24242439 692.51490977 -0.24568737 688.77402335 C-0.24980533 682.23846361 -0.24659828 675.70294055 -0.23841095 669.1673851 C-0.22627106 659.449472 -0.22574578 649.7315817 -0.22749493 640.01366239 C-0.23011444 623.66144693 -0.22347154 607.30924771 -0.21146011 590.95703697 C-0.19960627 574.77771613 -0.19192423 558.59840207 -0.18975449 542.41907692 C-0.18961701 541.41126 -0.18947953 540.40344307 -0.18933788 539.36508624 C-0.18866117 534.24642168 -0.18805842 529.12775712 -0.18748413 524.00909255 C-0.18328876 487.79959551 -0.16982928 451.5901073 -0.15087891 415.38061523 C-0.13249578 380.21427456 -0.11833554 345.04793631 -0.10986328 309.8815918 C-0.10960023 308.79668114 -0.10933718 307.71177049 -0.10906615 306.59398375 C-0.106429 295.69838064 -0.10387739 284.80277751 -0.10138843 273.90717437 C-0.09631667 251.71365424 -0.09067417 229.52013427 -0.08468628 207.32661438 C-0.0844117 206.30630153 -0.08413712 205.28598869 -0.08385422 204.23475727 C-0.06960617 151.4786864 -0.04688568 98.72261962 -0.0222168 45.96655273 C-0.02186999 45.22475565 -0.02152318 44.48295857 -0.02116586 43.71868279 C-0.01433739 29.14578841 -0.00713278 14.57289423 0 0 Z " fill="#555555" transform="translate(3372,438)"/>
<path d="M0 0 C19.14 0 38.28 0 58 0 C58 236.28 58 472.56 58 716 C38.86 716 19.72 716 0 716 C0 479.72 0 243.44 0 0 Z " fill="#565656" transform="translate(3085,634)"/>
<path d="M0 0 C1.04590805 0.00222061 2.0918161 0.00444122 3.16941833 0.00672913 C4.35056717 0.00680466 5.531716 0.00688019 6.74865723 0.00695801 C8.03404892 0.01211929 9.31944061 0.01728058 10.64378357 0.02259827 C11.95193527 0.02401321 13.26008698 0.02542816 14.60787964 0.02688599 C18.09150591 0.03071042 21.57509071 0.04054005 25.05870056 0.05158997 C28.6111444 0.06180569 32.16359491 0.06638395 35.71604919 0.07142639 C42.69067564 0.0821624 49.66527449 0.09923792 56.63987732 0.12025452 C54.77205093 5.82441722 52.81130287 11.4789829 50.69847107 17.09681702 C50.27952324 18.21603546 50.27952324 18.21603546 49.85211182 19.35786438 C48.9291597 21.82106786 48.00345209 24.28322347 47.07737732 26.74525452 C46.75241272 27.61071899 46.42744812 28.47618347 46.09263611 29.36787415 C40.00232915 45.58477886 33.81637865 61.76453429 27.60960388 77.93714905 C22.15392252 92.15418375 16.73088921 106.38331418 11.32737732 120.62025452 C4.61844584 138.29468264 -2.11234526 155.96062069 -8.86012268 173.62025452 C-15.54418206 191.113678 -22.21310146 208.61272372 -28.86012268 226.12025452 C-35.94800572 244.78896738 -43.06253783 263.44737326 -50.19010925 282.10096741 C-56.49423716 298.60048128 -62.77921051 315.10714067 -69.04762268 331.62025452 C-75.49482178 348.60409512 -81.97423213 365.57526727 -88.47871399 382.5372467 C-94.63467627 398.59236697 -100.75340583 414.6613766 -106.85572815 430.73695374 C-113.60936576 448.52736206 -120.39051827 466.30713896 -127.1832428 484.08265686 C-133.21143053 499.85837455 -139.22047886 515.64121198 -145.2122345 531.43080139 C-150.93393967 546.50787394 -156.66536366 561.58070862 -162.48512268 576.62025452 C-162.73609711 577.26953918 -162.98707153 577.91882385 -163.24565125 578.58778381 C-167.18138083 588.76277081 -167.18138083 588.76277081 -168.36012268 591.12025452 C-187.83012268 591.12025452 -207.30012268 591.12025452 -227.36012268 591.12025452 C-225.31946807 584.31807249 -223.18834748 577.74540441 -220.64918518 571.13978577 C-220.28912384 570.19451523 -219.9290625 569.24924469 -219.55809021 568.27532959 C-218.37043838 565.1598528 -217.17778689 562.04631552 -215.98512268 558.93275452 C-215.13779732 556.71282461 -214.29079903 554.49276983 -213.44410706 552.27259827 C-211.20555725 546.40521667 -208.96282896 540.5394412 -206.71913147 534.67402649 C-204.51124515 528.90046227 -202.30680497 523.12558313 -200.10231018 517.35072327 C-197.4690472 510.45308036 -194.83555123 503.55552729 -192.20045471 496.65858459 C-186.40385984 481.48538004 -180.62552584 466.30533604 -174.86012268 451.12025452 C-168.25241668 433.71780009 -161.62685418 416.32225216 -154.98512268 398.93275452 C-154.54911743 397.79117889 -154.11311218 396.64960327 -153.66389465 395.47343445 C-150.1189353 386.19230788 -146.572923 376.91158367 -143.02687073 367.63087463 C-139.92913148 359.52335502 -136.83180508 351.41567786 -133.73512268 343.30775452 C-133.2989563 342.16577606 -132.86278992 341.02379761 -132.41340637 339.84721375 C-125.8216901 322.58671879 -119.2508084 305.31839468 -112.69258118 288.04515076 C-105.99237333 270.39898433 -99.26410278 252.76363832 -92.52711487 235.13148499 C-86.28781872 218.80082542 -80.0653935 202.46387192 -73.86012268 186.12025452 C-67.25241668 168.71780009 -60.62685418 151.32225216 -53.98512268 133.93275452 C-53.54911743 132.79117889 -53.11311218 131.64960327 -52.66389465 130.47343445 C-49.1189353 121.19230788 -45.572923 111.91158367 -42.02687073 102.63087463 C-39.36780954 95.67147975 -36.70910378 88.71194925 -34.05085754 81.75224304 C-33.17856101 79.46864057 -32.30612606 77.18509097 -31.43354797 74.90159607 C-26.55563461 62.1360248 -21.69104393 49.36557677 -16.85231018 36.58509827 C-15.96250869 34.23654316 -15.07269766 31.88799166 -14.18287659 29.53944397 C-12.49719283 25.08991232 -10.81512105 20.63903726 -9.13502502 16.18739319 C-8.38205584 14.19882112 -7.62897021 12.21029314 -6.87574768 10.22181702 C-6.53204132 9.30806808 -6.18833496 8.39431915 -5.83421326 7.45288086 C-5.52082001 6.62720108 -5.20742676 5.8015213 -4.88453674 4.95082092 C-4.6125647 4.23068817 -4.34059265 3.51055542 -4.06037903 2.76860046 C-2.99207393 0.25389798 -2.83076616 0.14423505 0 0 Z " fill="#010101" transform="translate(794.3601226806641,673.8797454833984)"/>
<path d="M0 0 C1.70209877 0.00333092 1.70209877 0.00333092 3.43858337 0.00672913 C4.71983597 0.00680466 6.00108856 0.00688019 7.32116699 0.00695801 C8.73001646 0.01206542 10.13886554 0.01728143 11.54771423 0.02259827 C12.98118033 0.02446249 14.41464706 0.02588637 15.84811401 0.02688599 C19.62765755 0.03071079 23.40716288 0.04054075 27.18669128 0.05158997 C31.04075097 0.06180489 34.8948168 0.06638378 38.74888611 0.07142639 C46.31596085 0.08216306 53.88300407 0.09923903 61.45005798 0.12025452 C55.22906323 11.64257139 55.22906323 11.64257139 51.85630798 17.07337952 C51.22571472 18.09278625 50.59512146 19.11219299 49.94541931 20.16249084 C49.28695007 21.22105286 48.62848083 22.27961487 47.95005798 23.37025452 C46.52562485 25.6702593 45.10319451 27.97150123 43.68052673 30.27259827 C43.32407578 30.84850204 42.96762482 31.42440582 42.60037231 32.01776123 C39.12396224 37.63765448 35.69058106 43.28326795 32.26255798 48.93275452 C27.92225305 56.07966405 23.54996249 63.20514271 19.13755798 70.30775452 C13.6461111 79.14845035 8.23935951 88.03916174 2.84736633 96.94065857 C-2.25341861 105.35967858 -7.39971767 113.74855526 -12.59681702 122.10853577 C-17.13138222 129.41547128 -21.59453188 136.7649375 -26.04994202 144.12025452 C-31.59061239 153.26702382 -37.17106266 162.38713659 -42.81434631 171.47108459 C-47.29005028 178.68213412 -51.70365345 185.92995046 -56.10926819 193.18397522 C-60.56322174 200.51235741 -65.05034233 207.81982293 -69.54994202 215.12025452 C-74.57409811 223.2723976 -79.57813849 231.43607564 -84.54994202 239.62025452 C-90.19437179 248.91165604 -95.88518874 258.17380619 -101.58900452 267.42884827 C-105.93158023 274.47924629 -110.25077389 281.54331337 -114.54994202 288.62025452 C-120.19437179 297.91165604 -125.88518874 307.17380619 -131.58900452 316.42884827 C-135.93158023 323.47924629 -140.25077389 330.54331337 -144.54994202 337.62025452 C-150.19437179 346.91165604 -155.88518874 356.17380619 -161.58900452 365.42884827 C-165.93158023 372.47924629 -170.25077389 379.54331337 -174.54994202 386.62025452 C-179.52174596 394.80443406 -184.52588204 402.9680517 -189.54994202 411.12025452 C-194.77966198 419.60731398 -199.99196111 428.10456115 -205.17494202 436.62025452 C-205.73052795 437.53291077 -206.28611389 438.44556702 -206.85853577 439.38587952 C-209.99560103 444.36001603 -209.99560103 444.36001603 -212.55747986 449.62962341 C-213.94599914 452.6577718 -215.17303091 454.77252813 -217.54994202 457.12025452 C-222.45788717 458.52777646 -227.29974135 458.28819244 -232.35462952 458.09681702 C-233.80332036 458.07814743 -235.25207469 458.06392143 -236.70085144 458.05393982 C-240.5001852 458.01589403 -244.29564819 457.91780984 -248.09346008 457.80690002 C-251.97425461 457.70428994 -255.85567977 457.65886604 -259.73744202 457.60853577 C-267.34336683 457.50153302 -274.9461106 457.33105513 -282.54994202 457.12025452 C-277.98373938 449.04767897 -273.35386389 441.04118249 -268.42494202 433.18275452 C-267.29267314 431.36551854 -266.1611903 429.54779262 -265.03041077 427.72962952 C-264.45597229 426.80601624 -263.88153381 425.88240295 -263.28968811 424.93080139 C-260.41165881 420.28136647 -257.57468017 415.60715468 -254.73744202 410.93275452 C-249.7037566 402.64400889 -244.63813204 394.37565183 -239.54994202 386.12025452 C-234.52578592 377.96811143 -229.52174555 369.80443339 -224.54994202 361.62025452 C-218.90551224 352.32885299 -213.2146953 343.06670285 -207.51087952 333.81166077 C-203.1683038 326.76126274 -198.84911015 319.69719566 -194.54994202 312.62025452 C-188.90551224 303.32885299 -183.2146953 294.06670285 -177.51087952 284.81166077 C-173.1683038 277.76126274 -168.84911015 270.69719566 -164.54994202 263.62025452 C-158.90551224 254.32885299 -153.2146953 245.06670285 -147.51087952 235.81166077 C-143.1683038 228.76126274 -138.84911015 221.69719566 -134.54994202 214.62025452 C-128.90772991 205.33250354 -123.21941056 196.07382948 -117.51747131 186.82264709 C-113.10872627 179.66530257 -108.72608617 172.492673 -104.36244202 165.30775452 C-100.02181937 158.1610359 -95.64984856 151.0353696 -91.23744202 143.93275452 C-85.74599514 135.09205868 -80.33924354 126.2013473 -74.94725037 117.29985046 C-69.84646542 108.88083045 -64.70016636 100.49195377 -59.50306702 92.13197327 C-54.96850181 84.82503775 -50.50535215 77.47557154 -46.04994202 70.12025452 C-40.51591477 60.98445196 -34.94366483 51.87431276 -29.30531311 42.80238342 C-24.6458129 35.29776635 -20.05349779 27.75302309 -15.48085022 20.19520569 C-3.33078224 0.15707871 -3.33078224 0.15707871 0 0 Z " fill="#010101" transform="translate(356.54994201660156,526.8797454833984)"/>
<path d="M0 0 C3.79361875 0.13390562 7.58835757 0.1925498 11.38366699 0.25787354 C18.80731675 0.39657592 26.22539182 0.6178796 33.64538574 0.89263916 C32.26946107 3.71550899 30.82440297 6.11757393 28.87976074 8.58795166 C28.32667236 9.29443848 27.77358398 10.00092529 27.20373535 10.7288208 C26.30860229 11.86178589 26.30860229 11.86178589 25.39538574 13.01763916 C24.12057916 14.64388873 22.84584149 16.27019231 21.57116699 17.89654541 C20.91841797 18.72686279 20.26566895 19.55718018 19.59313965 20.41265869 C16.57831803 24.25128466 13.5797028 28.10245004 10.58288574 31.95513916 C9.71421875 33.07106445 9.71421875 33.07106445 8.82800293 34.20953369 C4.36626297 39.94801386 -0.0527088 45.71825349 -4.46032715 51.49835205 C-8.97747087 57.4156941 -13.54674914 63.29138169 -18.12414551 69.16217041 C-22.06224261 74.21795361 -25.96877182 79.29660734 -29.85461426 84.39263916 C-34.90391847 91.01447607 -40.00387027 97.59510659 -45.12414551 104.16217041 C-49.06224279 109.21795384 -52.96875298 114.29662149 -56.85461426 119.39263916 C-61.97230007 126.10369211 -67.13897738 132.7750939 -72.32629395 139.43243408 C-77.36341507 145.89815049 -82.36448363 152.39059809 -87.35461426 158.89263916 C-89.44040531 161.60565502 -91.52747904 164.31768398 -93.61437988 167.02984619 C-95.64902794 169.67441402 -97.68249682 172.31986363 -99.71398926 174.96685791 C-104.50836496 181.21051384 -109.32868238 187.43305342 -114.16711426 193.64263916 C-119.30151811 200.23299538 -124.39366489 206.85386181 -129.45935059 213.49713135 C-133.97688951 219.41482718 -138.54642852 225.29097048 -143.12414551 231.16217041 C-147.06224261 236.21795361 -150.96877182 241.29660734 -154.85461426 246.39263916 C-159.90391847 253.01447607 -165.00387027 259.59510659 -170.12414551 266.16217041 C-174.06224261 271.21795361 -177.96877182 276.29660734 -181.85461426 281.39263916 C-186.90391847 288.01447607 -192.00387027 294.59510659 -197.12414551 301.16217041 C-201.06224261 306.21795361 -204.96877182 311.29660734 -208.85461426 316.39263916 C-213.32220038 322.25159031 -217.82442527 328.08196179 -222.35461426 333.89263916 C-227.00078024 339.85567093 -231.63101744 345.83032284 -236.22961426 351.83013916 C-236.97791504 352.80370361 -236.97791504 352.80370361 -237.74133301 353.79693604 C-238.47416504 354.75503174 -238.47416504 354.75503174 -239.22180176 355.73248291 C-239.70204803 356.34141388 -240.18229431 356.95034485 -240.67709351 357.57772827 C-242.43452463 359.90284081 -242.43452463 359.90284081 -243.88320923 362.66738892 C-246.51622054 367.10944285 -248.48656315 370.33269742 -253.58065796 371.8596344 C-257.53328062 372.16486854 -261.40137399 372.13274839 -265.35461426 371.96685791 C-266.80043587 371.94630907 -268.24633475 371.93066628 -269.69226074 371.91969299 C-273.47552642 371.87793599 -277.2540531 371.77013673 -281.03546143 371.64794922 C-284.90291219 371.53486824 -288.77113874 371.48506802 -292.63977051 371.42974854 C-300.21353256 371.31221253 -307.78340646 371.12481227 -315.35461426 370.89263916 C-314.02710857 368.17776434 -312.65560182 365.81053724 -310.80773926 363.41607666 C-310.29960693 362.75446533 -309.79147461 362.092854 -309.26794434 361.41119385 C-308.71904541 360.7038208 -308.17014648 359.99644775 -307.60461426 359.26763916 C-306.74549438 358.15243896 -306.74549438 358.15243896 -305.86901855 357.01470947 C-304.03521057 354.63730219 -302.19585564 352.2642932 -300.35461426 349.89263916 C-299.75407227 349.11887939 -299.15353027 348.34511963 -298.53479004 347.5479126 C-295.5680084 343.7278495 -292.59715171 339.91098409 -289.62414551 336.09576416 C-286.85388085 332.5384471 -284.09995676 328.96922284 -281.35461426 325.39263916 C-277.37562427 320.20948115 -273.36923508 315.04824054 -269.35461426 309.89263916 C-263.66084892 302.57983346 -257.99632778 295.24567246 -252.35461426 287.89263916 C-246.10942734 279.75307888 -239.83071657 271.64087798 -233.52746582 263.54620361 C-230.12281521 259.17203205 -226.72995566 254.78946546 -223.35461426 250.39263916 C-218.77166709 244.42274745 -214.15050939 238.48309423 -209.52648926 232.54498291 C-206.12218997 228.17119839 -202.72963832 223.78905209 -199.35461426 219.39263916 C-195.37562427 214.20948115 -191.36923508 209.04824054 -187.35461426 203.89263916 C-181.66084892 196.57983346 -175.99632778 189.24567246 -170.35461426 181.89263916 C-164.10942734 173.75307888 -157.83071657 165.64087798 -151.52746582 157.54620361 C-148.12281521 153.17203205 -144.72995566 148.78946546 -141.35461426 144.39263916 C-137.37562427 139.20948115 -133.36923508 134.04824054 -129.35461426 128.89263916 C-123.66084892 121.57983346 -117.99632778 114.24567246 -112.35461426 106.89263916 C-106.10942734 98.75307888 -99.83071657 90.64087798 -93.52746582 82.54620361 C-90.12281521 78.17203205 -86.72995566 73.78946546 -83.35461426 69.39263916 C-78.77166709 63.42274745 -74.15050939 57.48309423 -69.52648926 51.54498291 C-66.12218997 47.17119839 -62.72963832 42.78905209 -59.35461426 38.39263916 C-54.83019409 32.49898657 -50.27097039 26.63288313 -45.70227051 20.77349854 C-45.15441895 20.07031494 -44.60656738 19.36713135 -44.04211426 18.64263916 C-43.43544922 17.91584961 -42.82878418 17.18906006 -42.20373535 16.44024658 C-40.19987454 13.86673317 -40.19987454 13.86673317 -38.83752441 10.46417236 C-31.70226274 -4.19395559 -13.89843996 -0.54247901 0 0 Z " fill="#010101" transform="translate(1999.3546142578125,673.1073608398438)"/>
<path d="M0 0 C18.48 0 36.96 0 56 0 C56 122.1 56 244.2 56 370 C37.52 370 19.04 370 0 370 C0 247.9 0 125.8 0 0 Z " fill="#030303" transform="translate(917,674)"/>
<path d="M0 0 C1.39824718 0.03137811 2.7964717 0.06377957 4.19467407 0.09709471 C5.68979083 0.09229513 7.18489854 0.08265857 8.67995703 0.06861389 C12.78129968 0.04404363 16.87947597 0.08796348 20.98041505 0.14317256 C25.40500716 0.19070831 29.82942295 0.17459849 34.25419861 0.16624755 C41.91782071 0.16048147 49.58041212 0.19497144 57.24377495 0.25686377 C68.32350316 0.34628974 79.40273334 0.37491222 90.48278333 0.38873168 C108.45942219 0.41280248 126.43551178 0.48599476 144.41185242 0.59006041 C161.87341301 0.69104083 179.33482438 0.76889774 196.79661804 0.81564635 C197.87308438 0.81853631 198.94955072 0.82142627 200.05863725 0.8244038 C205.4589916 0.83875929 210.85934699 0.85266006 216.2597031 0.86633474 C261.0561807 0.98035579 305.8519871 1.17711732 350.6479364 1.4198944 C350.6479364 18.9098944 350.6479364 36.3998944 350.6479364 54.4198944 C220.9579364 54.4198944 91.2679364 54.4198944 -42.3520636 54.4198944 C-33.34251044 38.65317637 -33.34251044 38.65317637 -30.09815735 33.31442565 C-29.57404014 32.45103827 -29.57404014 32.45103827 -29.03933471 31.57020873 C-28.31706619 30.38130326 -27.59392954 29.19292471 -26.86988586 28.00509948 C-25.78416321 26.22353288 -24.70170807 24.4400117 -23.61964172 22.65622252 C-19.62561662 16.08676626 -19.62561662 16.08676626 -18.51852894 14.37660789 C-17.25539208 12.3386602 -17.25539208 12.3386602 -16.11461771 9.70888698 C-12.08673484 1.79931021 -8.76051241 0.1509062 0 0 Z " fill="#020202" transform="translate(79.35206359624863,989.5801056027412)"/>
<path d="M0 0 C19.47 0 38.94 0 59 0 C64.75976119 13.82342687 64.75976119 13.82342687 67.06640625 19.83984375 C67.33740646 20.54309784 67.60840668 21.24635193 67.88761902 21.97091675 C68.78124103 24.2923498 69.67205032 26.61484841 70.5625 28.9375 C70.87924683 29.76212738 71.19599365 30.58675476 71.52233887 31.43637085 C78.19277024 48.80562765 84.75735756 66.21470138 91.31713867 83.62597656 C96.97988326 98.6553614 102.66540333 113.67585255 108.375 128.6875 C109.15316311 130.73372185 109.93132063 132.77994581 110.70947266 134.82617188 C111.89807948 137.951689 113.0866888 141.07720516 114.27536011 144.20269775 C119.23184217 157.23679259 124.17907064 170.27439782 129.125 183.3125 C129.58895172 184.53544769 130.05290344 185.75839539 130.53091431 187.0184021 C135.2667441 199.50279417 139.99885124 211.98856789 144.71484375 224.48046875 C145.08368683 225.45728607 145.45252991 226.43410339 145.83255005 227.44052124 C147.59767066 232.11607048 149.36097881 236.79229056 151.12109375 241.46972656 C154.35755595 250.06266561 157.62721302 258.64025274 160.97265625 267.19140625 C161.59710265 268.79485224 162.22137479 270.39836612 162.84545898 272.00195312 C163.99571161 274.95739457 165.15968055 277.9068791 166.33227539 280.85351562 C166.83926635 282.15342681 167.34572931 283.45354411 167.8515625 284.75390625 C168.29322754 285.87095947 168.73489258 286.9880127 169.18994141 288.13891602 C170.66532618 293.34989679 167.93099965 298.03564343 166.078125 302.9453125 C165.78146439 303.73634369 165.48480377 304.52737488 165.17915344 305.34237671 C164.20506522 307.93745384 163.22764272 310.53126007 162.25 313.125 C161.57666299 314.9159861 160.90340527 316.70700201 160.23022461 318.49804688 C153.8873496 335.35768644 147.46074441 352.18522334 141 369 C138.79570377 366.26277507 137.35037414 363.76269691 136.125 360.47412109 C135.78536224 359.57266861 135.44572449 358.67121613 135.09579468 357.7424469 C134.73418243 356.7626738 134.37257019 355.7829007 134 354.7734375 C133.61236481 353.73964462 133.22472961 352.70585175 132.8253479 351.64073181 C131.98560421 349.39890401 131.14885866 347.15595141 130.3147583 344.91201782 C128.98038531 341.32223173 127.63849186 337.73534015 126.29443359 334.14916992 C124.90095662 330.43090347 123.50766207 326.71257322 122.11727905 322.9931488 C118.04104342 312.09218062 113.91711883 301.20978303 109.77539062 290.33355713 C107.81992279 285.19827533 105.86714078 280.06197222 103.9140625 274.92578125 C103.51850159 273.88572937 103.12294067 272.84567749 102.71539307 271.77410889 C97.80171653 258.85264849 92.90141136 245.92611651 88 233 C81.17331022 214.99747078 74.34128166 196.99698915 67.5 179 C61.12781548 162.2370393 54.7631877 145.47122893 48.40438843 128.70318604 C45.61866582 121.35760497 42.83221986 114.01229825 40.04585266 106.66696167 C37.84680856 100.86969366 35.6481864 95.0722665 33.45068359 89.27441406 C31.03106465 82.89072843 28.60979568 76.50767038 26.1875 70.125 C25.80403412 69.11421387 25.42056824 68.10342773 25.02548218 67.06201172 C20.73370395 55.75343367 16.41309009 44.45673041 12.0390625 33.1796875 C11.6384108 32.14619171 11.23775909 31.11269592 10.82496643 30.04788208 C8.91418754 25.12116832 6.99906909 20.19620849 5.0769043 15.27392578 C4.40145601 13.5368126 3.72607751 11.79967228 3.05078125 10.0625 C2.73932159 9.26931366 2.42786194 8.47612732 2.10696411 7.65890503 C0 2.2264486 0 2.2264486 0 0 Z " fill="#010101" transform="translate(504,674)"/>
<path d="M0 0 C7.88888889 6.76190476 7.88888889 6.76190476 10.68359375 9.3671875 C11.29710693 9.93880615 11.91062012 10.5104248 12.54272461 11.09936523 C13.16800049 11.68532471 13.79327637 12.27128418 14.4375 12.875 C15.09564697 13.48996338 15.75379395 14.10492676 16.43188477 14.73852539 C20.45726293 18.51303295 24.39285977 22.35783382 28.26171875 26.29296875 C30.03030958 28.02976469 31.86469877 29.64115842 33.75 31.25 C37.95901984 34.85892196 41.83016156 38.77233143 45.70019531 42.73730469 C47.93115409 45.00685623 49.80443878 46.89712265 52.63942242 48.38850021 C56.59539718 52.76498303 55.66881285 57.869587 55.60127258 63.55352783 C55.60554471 64.85551518 55.60981683 66.15750253 55.61421841 67.49894404 C55.62541446 71.11588459 55.60537821 74.73208678 55.58032811 78.34893322 C55.55876433 82.24801312 55.56604063 86.14705035 55.56983948 90.0461731 C55.57246306 96.8026239 55.55675675 103.55883355 55.52865028 110.31522369 C55.4880395 120.08382412 55.47499556 129.85230776 55.46871033 139.62098345 C55.45776332 155.46939364 55.42447815 171.31767526 55.37719727 187.16601562 C55.33131216 202.56249345 55.29591512 217.95893637 55.2746582 233.35546875 C55.27334459 234.30428245 55.27203097 235.25309615 55.27067754 236.23066178 C55.26415242 240.99051368 55.25783387 245.75036583 55.25161803 250.51021814 C55.19977239 290.00690653 55.11032141 329.50343486 55 369 C36.85 369 18.7 369 0 369 C0 247.23 0 125.46 0 0 Z " fill="#000000" transform="translate(1172,675)"/>
<path d="M0 0 C4.23051726 3.62615765 8.1858478 7.06313626 12.07739258 10.97973633 C12.53362 11.43742401 12.98984741 11.89511169 13.4598999 12.3666687 C14.43546165 13.34599364 15.40986851 14.32647022 16.38318825 15.30802345 C17.92349789 16.86124063 19.46703621 18.41118566 21.01139832 19.96037292 C24.28127502 23.24159228 27.54716229 26.52676443 30.8125 29.8125 C34.61593187 33.63955222 38.42099174 37.4649567 42.23026085 41.28619957 C43.75125184 42.81367392 45.26920398 44.34412494 46.7870636 45.87471008 C47.70529404 46.79624374 48.62352448 47.7177774 49.56958008 48.66723633 C50.37897537 49.48186844 51.18837067 50.29650055 52.02229309 51.13581848 C53.86604435 53.05305094 53.86604435 53.05305094 56 54 C56 138.15 56 222.3 56 309 C37.52 309 19.04 309 0 309 C0 207.03 0 105.06 0 0 Z " fill="#020202" transform="translate(1554,675)"/>
<path d="M0 0 C18.15 0 36.3 0 55 0 C55 101.97 55 203.94 55 309 C52.69 307.02 50.38 305.04 48 303 C46.31592747 301.93902789 44.59930441 300.92695501 42.84667969 299.98352051 C24.78545961 289.62969528 7.31420444 275.09265793 0 255 C-5.26017868 235.56498545 -4.72731878 214.54956497 -4.6875 194.53125 C-4.68644965 193.83451282 -4.68539929 193.13777564 -4.68431711 192.41992521 C-4.64337628 174.25831599 -4.12380126 156.11827505 -3.45728397 137.97027683 C-3.07399504 127.41831791 -2.81395079 116.86840865 -2.63671875 106.31103516 C-2.62410802 105.56196201 -2.61149729 104.81288887 -2.59850442 104.04111654 C-2.53583803 100.28119488 -2.47518597 96.52124394 -2.41553307 92.76127338 C-1.92217446 61.82720606 -1.04006385 30.92189845 0 0 Z " fill="#000000" transform="translate(1301,734)"/>
<path d="M0 0 C98.34 0 196.68 0 298 0 C296.49158446 3.77103886 295.04762387 6.79081371 292.98046875 10.21875 C292.37605957 11.22421875 291.77165039 12.2296875 291.14892578 13.265625 C290.17802002 14.86664062 290.17802002 14.86664062 289.1875 16.5 C288.52476074 17.59828125 287.86202148 18.6965625 287.17919922 19.828125 C282.69686495 27.24068256 278.17705564 34.63006656 273.625 42 C273.07223389 42.89525391 272.51946777 43.79050781 271.94995117 44.71289062 C271.18968628 45.93782227 271.18968628 45.93782227 270.4140625 47.1875 C269.74818115 48.26064453 269.74818115 48.26064453 269.06884766 49.35546875 C268 51 268 51 267 52 C265.57171382 52.09660712 264.13866369 52.12371834 262.70711422 52.12304783 C261.30902772 52.1260344 261.30902772 52.1260344 259.88269705 52.12908131 C258.32874152 52.12471205 258.32874152 52.12471205 256.74339294 52.12025452 C255.65223004 52.12110894 254.56106713 52.12196337 253.43683869 52.12284368 C249.75011252 52.1245017 246.06343102 52.11897187 242.37670898 52.11352539 C239.74605307 52.11324356 237.11539708 52.11340117 234.48474121 52.1139679 C228.80547554 52.11449332 223.12622133 52.11134461 217.44695854 52.10573006 C209.23560688 52.09761753 201.02426079 52.09500009 192.81290556 52.09374207 C179.49188507 52.09155116 166.17087069 52.08489002 152.84985352 52.07543945 C139.90649445 52.06626634 126.96313705 52.05918501 114.01977539 52.05493164 C113.22251029 52.05466892 112.4252452 52.05440619 111.60382055 52.05413551 C107.60434417 52.05283051 103.60486778 52.05156679 99.60539138 52.05032361 C66.40358884 52.03994978 33.20179766 52.02151083 0 52 C0 34.84 0 17.68 0 0 Z " fill="#000000" transform="translate(48,527)"/>
<path d="M0 0 C80.85 0 161.7 0 245 0 C241.07460671 4.5796255 237.36882954 8.70150259 232.9375 12.6875 C231.79026525 13.73296392 230.64313273 14.77854004 229.49609375 15.82421875 C228.91585449 16.35063965 228.33561523 16.87706055 227.73779297 17.41943359 C224.97711483 19.93033979 222.23939417 22.46592531 219.5 25 C218.41937692 25.99751077 217.33864747 26.99490632 216.2578125 27.9921875 C214.06405306 30.01709474 211.87147098 32.04326671 209.6796875 34.0703125 C208.84920898 34.83794922 208.84920898 34.83794922 208.00195312 35.62109375 C206.48800852 37.02053834 204.97445712 38.42040829 203.4609375 39.8203125 C202.92370465 40.29479136 202.38647181 40.76927021 201.83295918 41.25812721 C199.88317662 43.04942398 199.88317662 43.04942398 197.90961742 45.45810509 C193.32187629 50.42974351 189.68158376 53.47859178 182.79348528 54.11053967 C178.65660536 54.27664179 174.53975311 54.22351318 170.40161133 54.13525391 C168.53794508 54.13242893 166.67426772 54.13402478 164.81060791 54.13967896 C159.77943879 54.1425348 154.75067974 54.083969 149.72006822 54.01393938 C144.4524769 53.95119757 139.18482322 53.94553424 133.91691589 53.9336853 C123.95424079 53.90267046 113.99267005 53.82070087 104.03048009 53.72019041 C92.68355991 53.60820743 81.3365855 53.55338177 69.98924983 53.50323606 C46.65874757 53.39886046 23.32975819 53.21555875 0 53 C0 35.51 0 18.02 0 0 Z " fill="#020202" transform="translate(1364,991)"/>
<path d="M0 0 C0.72956354 0.00582568 1.45912709 0.01165137 2.21079862 0.01765358 C2.98429887 0.01594473 3.75779911 0.01423589 4.55473876 0.01247525 C7.16051145 0.00916693 9.76602967 0.02020597 12.37177885 0.03111184 C14.23411908 0.03167566 16.09645975 0.03135995 17.95879972 0.03022683 C23.02674012 0.02965119 28.09458654 0.04143954 33.16250503 0.05537474 C38.45429389 0.06784705 43.74608473 0.06904983 49.03788602 0.07142556 C59.06410062 0.07765065 69.09027179 0.09407534 79.11646724 0.11412454 C90.52862415 0.13645158 101.94078311 0.14746892 113.35295641 0.15751541 C136.83370682 0.17844071 160.31439767 0.21512975 183.79511869 0.25816262 C183.79511869 17.74816262 183.79511869 35.23816262 183.79511869 53.25816262 C102.94511869 53.25816262 22.09511869 53.25816262 -61.20488131 53.25816262 C-55.60898892 46.54309175 -55.60898892 46.54309175 -52.37675631 43.83628762 C-48.28598743 40.34360678 -44.36297924 36.70294172 -40.45488131 33.00816262 C-34.2580305 27.17392795 -28.01597654 21.39572711 -21.73173678 15.65562356 C-18.84090278 13.00977549 -15.96027647 10.35286402 -13.07988131 7.69566262 C-12.52276461 7.18237404 -11.96564791 6.66908547 -11.39164889 6.1402427 C-4.76915046 0.02867275 -4.76915046 0.02867275 0 0 Z " fill="#020202" transform="translate(1362.204881310463,673.7418373823166)"/>
<path d="M0 0 C8.17123682 -0.3025778 16.34009869 -0.53284447 24.51556969 -0.67355824 C28.31302421 -0.74113512 32.10662179 -0.83257867 35.90185547 -0.98071289 C62.49276837 -1.99131522 62.49276837 -1.99131522 68.02441406 2.63525391 C70.77003604 5.75676215 72.3266402 9.21837919 74 13 C75.17742222 14.62218126 76.40302837 16.21119275 77.6875 17.75 C78.23535156 18.45318359 78.78320312 19.15636719 79.34765625 19.88085938 C79.89292969 20.58017578 80.43820312 21.27949219 81 22 C85.81391509 28.18115016 90.60425099 34.37922169 95.375 40.59375 C98.56627975 44.74241368 101.784213 48.87032481 105 53 C109.81351723 59.18146123 114.60424879 65.37921882 119.375 71.59375 C122.56627991 75.74241389 125.78424136 79.87030247 129 84 C135.48226799 92.3255216 141.92074101 100.68336578 148.34375 109.0546875 C155.5224501 118.40098211 162.75764297 127.70297341 170 137 C167.38539187 141.79033561 163.99216421 145.7777921 160.5 149.9375 C155.45028198 156.00543878 150.48315748 162.12259949 145.640625 168.35717773 C142.83121778 171.96919361 139.94493337 175.49862646 137 179 C133.12028648 175.39205385 130.05158897 171.27801162 126.875 167.0625 C125.7098013 165.52721784 124.54443514 163.99206276 123.37890625 162.45703125 C122.80543457 161.69986816 122.23196289 160.94270508 121.64111328 160.16259766 C119.3785962 157.18113733 117.0975869 154.2141761 114.8125 151.25 C114.01457031 150.21359375 113.21664063 149.1771875 112.39453125 148.109375 C111.60433594 147.08328125 110.81414062 146.0571875 110 145 C108.33304708 142.83355349 106.66652587 140.66677503 105 138.5 C104.16667453 137.41666062 103.3333412 136.33332728 102.5 135.25 C100.83333333 133.08333333 99.16666667 130.91666667 97.5 128.75 C97.0877417 128.21407227 96.6754834 127.67814453 96.25073242 127.12597656 C95.41492624 126.03941221 94.57915165 124.95282355 93.7434082 123.86621094 C91.69816364 121.20711452 89.65230009 118.5485006 87.60546875 115.890625 C82.33103962 109.03983176 77.07374453 102.17616091 71.82373047 95.30664062 C66.89614609 88.86052906 61.95056996 82.42847258 57 76 C55.33304708 73.83355349 53.66652587 71.66677503 52 69.5 C51.16667453 68.41666062 50.3333412 67.33332728 49.5 66.25 C24.5 33.75 24.5 33.75 23.24926758 32.12402344 C22.41840713 31.0439211 21.58751536 29.96384285 20.7565918 28.88378906 C18.63516183 26.12622134 16.51432773 23.36819866 14.39453125 20.609375 C13.96575684 20.05161377 13.53698242 19.49385254 13.09521484 18.91918945 C12.24991546 17.81920623 11.40517517 16.71879311 10.56103516 15.61791992 C7.48259371 11.60831456 4.34998218 7.64433271 1.1796875 3.70703125 C0 2 0 2 0 0 Z " fill="#010101" transform="translate(1684,674)"/>
<path d="M0 0 C3.48704771 3.36448013 6.52101581 6.82075753 9.4375 10.6875 C10.31581727 11.84419747 11.19475937 13.00042066 12.07421875 14.15625 C12.77877197 15.084375 12.77877197 15.084375 13.49755859 16.03125 C16.22320476 19.60284744 18.98849082 23.14360789 21.75 26.6875 C22.94793133 28.22655108 24.14584782 29.76561372 25.34375 31.3046875 C26.56245675 32.86982534 27.78120693 34.43492937 29 36 C36.15392285 45.18646063 43.29932343 54.37836727 50.390625 63.61328125 C55.29394626 69.98721641 60.2448486 76.32446734 65.18554688 82.66943359 C68.70562453 87.19078199 72.22266224 91.71449524 75.74023438 96.23779297 C78.70599212 100.05126591 81.67255251 103.86410954 84.640625 107.67578125 C90.57983564 115.30459492 96.50235967 122.94506643 102.390625 130.61328125 C106.67794205 136.18645899 111.00388469 141.72975544 115.32421875 147.27734375 C117.83058981 150.49579021 120.33281014 153.71740466 122.83203125 156.94140625 C123.76934082 158.14953979 123.76934082 158.14953979 124.72558594 159.38208008 C125.91586218 160.91643538 127.10536458 162.45139145 128.29394531 163.98706055 C130.77154647 167.17878949 133.26535331 170.32879124 135.90234375 173.390625 C138 176 138 176 138 178 C129.76802296 178.42010359 121.54062447 178.73829193 113.30052757 178.93261909 C109.47217813 179.02598079 105.65123197 179.15208276 101.82714844 179.35791016 C77.21174723 180.64862454 77.21174723 180.64862454 70.26477051 176.27990723 C65.87197277 172.19406653 62.8999839 167.50189351 60.17797852 162.19358826 C58.45397987 158.98322141 56.29462134 156.32643131 54 153.5 C53.21109375 152.47261719 52.4221875 151.44523438 51.609375 150.38671875 C46.70605374 144.01278359 41.7551514 137.67553266 36.81445312 131.33056641 C33.87486662 127.55482734 30.93752285 123.77734465 28 120 C26.83334461 118.49999123 25.66667793 116.99999124 24.5 115.5 C3.5 88.5 3.5 88.5 1.74926758 86.24902344 C0.58508741 84.75224357 -0.5791377 83.25549866 -1.7434082 81.75878906 C-4.69849173 77.95980942 -7.65274014 74.16018535 -10.60546875 70.359375 C-11.19972656 69.59520264 -11.79398438 68.83103027 -12.40625 68.04370117 C-13.58173998 66.53003226 -14.75496763 65.0146034 -15.92578125 63.49731445 C-18.69020083 59.92305564 -21.48646627 56.39235822 -24.39453125 52.93359375 C-24.91958252 52.29905273 -25.44463379 51.66451172 -25.9855957 51.01074219 C-26.96782885 49.82819872 -27.96438116 48.65734878 -28.97729492 47.50097656 C-30.28125 45.91796875 -30.28125 45.91796875 -32 43 C-31.26277664 38.30113191 -27.66045197 34.82560943 -24.6875 31.25 C-23.60505618 29.92457555 -22.5243948 28.59769388 -21.4453125 27.26953125 C-20.60081543 26.23046631 -20.60081543 26.23046631 -19.73925781 25.17041016 C-16.22444253 20.78429171 -12.84511249 16.2933946 -9.45385742 11.81152344 C-6.3984154 7.7852791 -3.26715648 3.85680903 0 0 Z " fill="#010101" transform="translate(1895,866)"/>
<path d="M0 0 C1.25967087 -0.00146027 2.51934174 -0.00292053 3.81718445 -0.00442505 C7.24149992 -0.00727227 10.66224898 0.05113418 14.08574152 0.12131453 C17.67431257 0.18421175 21.26298305 0.18973142 24.85202026 0.2015686 C31.6346262 0.23253968 38.41560301 0.314444 45.19749439 0.4150635 C52.92407117 0.52718811 60.6507295 0.58190665 68.37791848 0.63201785 C84.26069703 0.73629362 100.14123392 0.91953286 116.02294922 1.13525391 C116.02294922 18.62525391 116.02294922 36.11525391 116.02294922 54.13525391 C55.63294922 54.13525391 -4.75705078 54.13525391 -66.97705078 54.13525391 C-66.97705078 53.47525391 -66.97705078 52.81525391 -66.97705078 52.13525391 C-65.54345703 50.72509766 -65.54345703 50.72509766 -63.53955078 49.07275391 C-60.36947861 46.38350397 -57.39123554 43.60012013 -54.47705078 40.63525391 C-51.76901513 37.89024849 -49.03535829 35.2625448 -46.10205078 32.76025391 C-42.73147357 29.8731061 -39.59200872 26.79278772 -36.47705078 23.63525391 C-32.82445766 19.93280454 -29.10995525 16.39037021 -25.10214043 13.07222557 C-22.88599819 11.13375608 -22.88599819 11.13375608 -20.86125374 8.65197182 C-14.31845987 1.14611692 -9.77808983 -0.30039439 0 0 Z " fill="#020202" transform="translate(1047.97705078125,672.86474609375)"/>
<path d="M0 0 C5.5537586 4.70185463 9.54418999 9.28201316 12.3984375 15.9921875 C13.19121094 17.77496094 13.19121094 17.77496094 14 19.59375 C15.85123522 24.62538742 15.89340563 29.49070949 15.8359375 34.8046875 C15.82836426 35.78010498 15.82079102 36.75552246 15.81298828 37.76049805 C15.65155195 44.80536745 14.88549202 50.75676914 11.3984375 56.9921875 C10.97433594 57.77335937 10.55023437 58.55453125 10.11328125 59.359375 C3.65886514 70.03882672 -6.31892514 77.45296272 -18.38671875 80.44921875 C-31.62906648 82.68577566 -44.57117513 81.24844395 -55.9765625 73.7421875 C-63.07728205 68.33595784 -68.18303631 62.23779929 -71.6015625 53.9921875 C-71.900625 53.35152344 -72.1996875 52.71085937 -72.5078125 52.05078125 C-76.99669613 41.09873646 -75.38809919 26.90547575 -71.6015625 15.9921875 C-66.59914779 4.53451155 -57.10145155 -3.46134474 -45.6015625 -8.0078125 C-30.13116426 -13.42245189 -12.77837628 -9.8619901 0 0 Z " fill="#555555" transform="translate(3143.6015625,397.0078125)"/>
</svg>
